<svg width="31" height="31" viewBox="0 0 31 31" fill="none" xmlns="http://www.w3.org/2000/svg">
<path d="M30.0833 21.6103C30.0833 26.9186 26.9187 30.0832 21.6104 30.0832H19.8749C19.0729 30.0832 18.4166 29.4269 18.4166 28.6248V20.2103C18.4166 19.8165 18.7374 19.4811 19.1312 19.4811L21.6979 19.4373C21.902 19.4228 22.077 19.2769 22.1208 19.0728L22.6312 16.2873C22.6411 16.2242 22.6372 16.1597 22.6198 16.0982C22.6023 16.0367 22.5718 15.9797 22.5302 15.9312C22.4886 15.8827 22.437 15.8438 22.3789 15.8171C22.3208 15.7905 22.2576 15.7768 22.1937 15.7769L19.0874 15.8207C18.6791 15.8207 18.3583 15.4998 18.3437 15.1061L18.2854 11.5332C18.2854 11.2998 18.4749 11.0957 18.7229 11.0957L22.2229 11.0373C22.4708 11.0373 22.6604 10.8478 22.6604 10.5998L22.602 7.09984C22.602 6.85192 22.4124 6.66234 22.1645 6.66234L18.227 6.72067C17.6522 6.7294 17.0848 6.85147 16.5573 7.07989C16.0298 7.30831 15.5525 7.63858 15.1529 8.05178C14.7532 8.46498 14.439 8.95298 14.2283 9.48782C14.0176 10.0227 13.9145 10.5938 13.9249 11.1686L13.9979 15.179C14.0124 15.5873 13.6916 15.9082 13.2833 15.9228L11.5333 15.9519C11.2854 15.9519 11.0958 16.1415 11.0958 16.3894L11.1395 19.1603C11.1395 19.4082 11.3291 19.5978 11.577 19.5978L13.327 19.5686C13.7354 19.5686 14.0562 19.8894 14.0708 20.2832L14.202 28.5957C14.2166 29.4123 13.5604 30.0832 12.7437 30.0832H9.38953C4.0812 30.0832 0.916615 26.9186 0.916615 21.5957V9.38942C0.916615 4.08109 4.0812 0.916504 9.38953 0.916504H21.6104C26.9187 0.916504 30.0833 4.08109 30.0833 9.38942V21.6103Z" fill="white"/>
</svg>
